<svg width="442.8" height="71.201" viewBox="0 0 442.8 71.201" xmlns="http://www.w3.org/2000/svg"><g id="svgGroup" stroke-linecap="round" fill-rule="evenodd" font-size="9pt" stroke="#ffffff" stroke-width="0.25mm" fill="#ffffff" style="stroke:#ffffff;stroke-width:0.25mm;fill:#ffffff"><path d="M 371.3 70 L 311.1 70 L 323.3 1.2 L 382.8 1.2 L 379.9 17.7 L 342.5 17.7 L 340.8 27.2 L 372.8 27.2 L 370 43 L 338 43 L 336.1 53.5 L 374.2 53.5 L 371.3 70 Z M 94.4 70 L 72.3 70 L 84.4 1.2 L 126.5 1.2 Q 132.116 1.2 136.187 2.745 A 17.724 17.724 0 0 1 138.1 3.6 A 18.422 18.422 0 0 1 142.005 6.289 A 14.908 14.908 0 0 1 144.95 9.95 Q 147.2 13.9 147.2 18.8 Q 147.2 24.863 145.45 29.4 A 21.391 21.391 0 0 1 145.25 29.9 A 23.354 23.354 0 0 1 141.529 36.078 A 21.51 21.51 0 0 1 139.85 37.85 A 29.243 29.243 0 0 1 132.512 42.865 A 33.13 33.13 0 0 1 131.8 43.2 L 140.6 70 L 116.1 70 L 109.7 46.9 L 98.5 46.9 L 94.4 70 Z M 280.2 70 L 233.3 70 L 245.5 1.2 L 289.4 1.2 A 29.874 29.874 0 0 1 293.51 1.466 Q 295.676 1.768 297.47 2.411 A 14.444 14.444 0 0 1 299.75 3.45 A 16.339 16.339 0 0 1 303.082 5.922 A 13.1 13.1 0 0 1 305.55 9.2 Q 307.4 12.7 307.4 16.6 Q 307.4 20.7 305.6 24.4 Q 303.8 28.1 300.6 30.7 Q 297.4 33.3 293 34.1 L 292.9 34.5 Q 297.3 35.9 300.35 39.35 A 11.785 11.785 0 0 1 302.989 44.618 A 17.324 17.324 0 0 1 303.4 48.5 A 24.262 24.262 0 0 1 302.725 54.352 A 18.979 18.979 0 0 1 300.3 60.05 Q 297.2 64.9 291.95 67.45 A 25.527 25.527 0 0 1 283.081 69.87 A 31.128 31.128 0 0 1 280.2 70 Z M 439.7 70 L 383.3 70 L 395.5 1.2 L 417.6 1.2 L 408.5 52.4 L 442.8 52.4 L 439.7 70 Z M 22.1 70 L 0 70 L 12.2 1.2 L 52 1.2 A 23.082 23.082 0 0 1 57.057 1.73 A 17.67 17.67 0 0 1 62.05 3.65 Q 66.3 6.1 68.7 10.5 A 19.609 19.609 0 0 1 70.91 17.497 A 24.71 24.71 0 0 1 71.1 20.6 Q 71.1 26.3 69.25 31.25 Q 67.4 36.2 63.95 39.9 Q 60.5 43.6 55.75 45.7 A 24.593 24.593 0 0 1 48.502 47.615 A 30.511 30.511 0 0 1 45.1 47.8 L 26 47.8 L 22.1 70 Z M 177.053 70.689 A 58.417 58.417 0 0 0 185 71.2 A 75.009 75.009 0 0 0 186.9 71.177 Q 197.984 70.896 206.05 67.3 Q 214.8 63.4 220.15 55.7 Q 223.159 51.369 225.109 45.867 A 57.457 57.457 0 0 0 227.5 36.6 A 60.46 60.46 0 0 0 227.525 36.457 A 55.562 55.562 0 0 0 228.1 32.1 A 51.826 51.826 0 0 0 228.192 30.946 A 44.652 44.652 0 0 0 228.3 27.9 A 44.05 44.05 0 0 0 228.283 26.688 Q 228.05 18.192 224.5 12.4 A 21.951 21.951 0 0 0 220.115 7.232 A 25.268 25.268 0 0 0 213.35 3.1 A 32.767 32.767 0 0 0 211.099 2.248 Q 207.617 1.073 203.511 0.512 A 59.276 59.276 0 0 0 195.5 0 Q 183 0 174.3 3.9 Q 165.6 7.8 160.4 15.5 Q 155.2 23.2 153.2 34.6 Q 152.8 37 152.55 39.25 A 43.399 43.399 0 0 0 152.478 39.95 A 38.716 38.716 0 0 0 152.3 43.6 Q 152.3 47.617 153.04 51.059 A 24.49 24.49 0 0 0 156.1 58.85 A 21.929 21.929 0 0 0 160.614 64.093 A 25.552 25.552 0 0 0 167.25 68.1 A 32.823 32.823 0 0 0 169.247 68.866 Q 172.825 70.108 177.053 70.689 Z M 186.9 54.7 A 19.575 19.575 0 0 0 190.744 54.337 A 16.159 16.159 0 0 0 193.45 53.55 Q 196.4 52.4 198.6 50.3 A 17.376 17.376 0 0 0 201.827 46.063 A 20.071 20.071 0 0 0 202.25 45.25 A 23.119 23.119 0 0 0 204.092 39.881 A 26.41 26.41 0 0 0 204.3 38.8 Q 204.8 35.9 205.1 34.05 Q 205.33 32.634 205.471 31.657 A 65.684 65.684 0 0 0 205.55 31.1 A 65.444 65.444 0 0 0 205.619 30.582 Q 205.683 30.079 205.721 29.709 A 16.506 16.506 0 0 0 205.75 29.4 Q 205.8 28.8 205.8 28.3 Q 205.8 24.7 204.45 22.05 Q 203.1 19.4 200.4 17.95 Q 198.07 16.699 194.697 16.528 A 21.618 21.618 0 0 0 193.6 16.5 A 19.575 19.575 0 0 0 189.756 16.864 A 16.159 16.159 0 0 0 187.05 17.65 A 15.034 15.034 0 0 0 182.085 20.77 A 14.567 14.567 0 0 0 181.95 20.9 A 17.731 17.731 0 0 0 178.918 24.874 A 20.746 20.746 0 0 0 178.35 25.95 A 23.119 23.119 0 0 0 176.508 31.32 A 26.41 26.41 0 0 0 176.3 32.4 Q 175.853 35.084 175.566 36.847 A 579.959 579.959 0 0 0 175.5 37.25 Q 175.27 38.667 175.129 39.644 A 65.684 65.684 0 0 0 175.05 40.2 A 65.438 65.438 0 0 0 174.981 40.719 Q 174.917 41.222 174.879 41.592 A 16.506 16.506 0 0 0 174.85 41.9 Q 174.8 42.5 174.8 43 A 16.037 16.037 0 0 0 175.086 46.095 A 12.278 12.278 0 0 0 176.1 49.15 Q 177.4 51.8 180.1 53.25 Q 182.43 54.502 185.803 54.673 A 21.618 21.618 0 0 0 186.9 54.7 Z M 103.7 16.9 L 101.2 31.6 L 115.7 31.6 A 7.432 7.432 0 0 0 118.45 31.057 A 9.562 9.562 0 0 0 119.7 30.45 Q 121.7 29.3 123 27.3 A 8.084 8.084 0 0 0 124.278 23.361 A 9.961 9.961 0 0 0 124.3 22.7 A 7.87 7.87 0 0 0 124.103 20.891 A 5.474 5.474 0 0 0 122.9 18.5 A 4.603 4.603 0 0 0 119.554 16.91 A 6.322 6.322 0 0 0 119.2 16.9 L 103.7 16.9 Z M 260.3 42.2 L 258.3 54 L 275.3 54 A 6.608 6.608 0 0 0 276.871 53.823 A 4.912 4.912 0 0 0 278.65 53 A 6.217 6.217 0 0 0 280.61 50.554 A 7.408 7.408 0 0 0 280.7 50.35 A 8.957 8.957 0 0 0 281.399 46.949 A 10.237 10.237 0 0 0 281.4 46.8 A 5.226 5.226 0 0 0 281.094 44.987 A 4.697 4.697 0 0 0 280.25 43.55 A 3.481 3.481 0 0 0 278.767 42.549 Q 277.82 42.2 276.5 42.2 L 260.3 42.2 Z M 264.9 16.3 L 262.8 28 L 278 28 A 8.804 8.804 0 0 0 279.299 27.91 Q 280.014 27.803 280.615 27.571 A 5.076 5.076 0 0 0 280.9 27.45 A 5.058 5.058 0 0 0 282.54 26.274 A 4.877 4.877 0 0 0 282.85 25.9 Q 283.6 24.9 283.95 23.65 Q 284.3 22.4 284.3 21.1 Q 284.3 19.2 283.25 17.75 A 3.344 3.344 0 0 0 281.334 16.472 Q 280.771 16.322 280.095 16.303 A 7.046 7.046 0 0 0 279.9 16.3 L 264.9 16.3 Z M 31.4 17.5 L 28.9 31.7 L 40.4 31.7 A 10.717 10.717 0 0 0 42.277 31.545 Q 43.344 31.356 44.207 30.933 A 5.895 5.895 0 0 0 44.95 30.5 Q 46.7 29.3 47.55 27.3 A 10.759 10.759 0 0 0 48.359 23.931 A 12.859 12.859 0 0 0 48.4 22.9 A 6.983 6.983 0 0 0 48.225 21.289 A 4.54 4.54 0 0 0 46.85 18.9 Q 45.3 17.5 42.2 17.5 L 31.4 17.5 Z" vector-effect="non-scaling-stroke"/></g></svg>